<?xml version="1.0" encoding="utf-8"?>
<!-- Generator: Adobe Illustrator 16.0.0, SVG Export Plug-In . SVG Version: 6.00 Build 0)  -->
<!DOCTYPE svg PUBLIC "-//W3C//DTD SVG 1.1//EN" "http://www.w3.org/Graphics/SVG/1.1/DTD/svg11.dtd">
<svg version="1.1" id="Layer_1" xmlns="http://www.w3.org/2000/svg" xmlns:xlink="http://www.w3.org/1999/xlink" x="0px" y="0px"
	 width="1126.539px" height="1218.764px" viewBox="0 0 1126.539 1218.764" enable-background="new 0 0 1126.539 1218.764"
	 xml:space="preserve">
<g>
	<polygon fill-rule="evenodd" clip-rule="evenodd" fill="#EC2127" points="695.593,450.707 839.226,699.486 551.965,699.486 
		695.593,450.707 	"/>
	<path fill-rule="evenodd" clip-rule="evenodd" fill="#FFFFFF" d="M857.516,857.284l208.687,361.479l60.336-104.494L917.837,752.805
		H500.452l-60.325,104.479H857.516L857.516,857.284z M696.505,1033.228l83.567-144.752h59.426l30.408,52.663l-83.231,144.129
		L696.505,1033.228L696.505,1033.228z M417.385,618.237l208.694-361.452l60.329,104.471L477.71,722.732H60.321L0,618.27
		L417.385,618.237L417.385,618.237z M256.394,442.313l83.547,144.728h59.442l30.4-52.631l-83.228-144.16L256.394,442.313
		L256.394,442.313z M828.211,361.48l208.695,361.46H916.254L707.552,361.48L916.254,0h120.652L828.211,361.48L828.211,361.48z
		 M1061.07,310.008H893.951l-29.704,51.473l30.392,52.655h166.431V310.008L1061.07,310.008z"/>
</g>
</svg>
