<?xml version="1.0" encoding="UTF-8" standalone="no"?>
<!-- Created with Inkscape (http://www.inkscape.org/) -->

<svg
   xmlns:dc="http://purl.org/dc/elements/1.1/"
   xmlns:cc="http://creativecommons.org/ns#"
   xmlns:rdf="http://www.w3.org/1999/02/22-rdf-syntax-ns#"
   xmlns:svg="http://www.w3.org/2000/svg"
   xmlns="http://www.w3.org/2000/svg"
   xmlns:sodipodi="http://sodipodi.sourceforge.net/DTD/sodipodi-0.dtd"
   xmlns:inkscape="http://www.inkscape.org/namespaces/inkscape"
   width="800"
   height="281.40497"
   viewBox="0 0 800 281.40497"
   id="svg3551"
   version="1.1"
   inkscape:version="0.48.3.1 r9886"
   sodipodi:docname="logo-uem.svg">
  <defs
     id="defs3553" />
  <sodipodi:namedview
     id="base"
     pagecolor="#ffffff"
     bordercolor="#666666"
     borderopacity="1.0"
     inkscape:pageopacity="0.0"
     inkscape:pageshadow="2"
     inkscape:zoom="0.35"
     inkscape:cx="0.85234681"
     inkscape:cy="-17.520216"
     inkscape:document-units="px"
     inkscape:current-layer="layer1"
     showgrid="false"
     fit-margin-top="0"
     fit-margin-left="0"
     fit-margin-right="0"
     fit-margin-bottom="0"
     inkscape:window-width="1032"
     inkscape:window-height="423"
     inkscape:window-x="132"
     inkscape:window-y="124"
     inkscape:window-maximized="0" />
  <metadata
     id="metadata3556">
    <rdf:RDF>
      <cc:Work
         rdf:about="">
        <dc:format>image/svg+xml</dc:format>
        <dc:type
           rdf:resource="http://purl.org/dc/dcmitype/StillImage" />
        <dc:title />
      </cc:Work>
    </rdf:RDF>
  </metadata>
  <g
     inkscape:label="Layer 1"
     inkscape:groupmode="layer"
     id="layer1"
     transform="translate(899.59739,-669.65181)">
    <polygon
       style="fill:#c83737;fill-opacity:1"
       id="polygon3870"
       points="247.059,429.752 254.071,441.621 240.62,441.621 "
       class="st0"
       transform="matrix(4.485685,0,0,4.485685,-1847.5977,-1150.2308)" />
    <g
       style="fill:#1a1a1a;fill-opacity:1"
       id="g3872"
       transform="matrix(1.1108005,0,0,1.1108005,-1134.3529,430.71009)" />
    <path
       inkscape:connector-curvature="0"
       d="m -129.94385,812.09486 v -2.1666 l 0.14821,0.004 c 0.86572,-0.004 1.55654,-0.18818 2.08135,-0.5517 0.52929,-0.359 0.92851,-0.84331 1.20215,-1.42647 0.27783,-0.59657 0.4755,-1.24253 0.59212,-1.96025 0.11186,-0.70875 0.19747,-1.42195 0.2423,-2.1307 h 2.37739 c 0,1.08104 -0.11186,2.11725 -0.34527,3.09511 -0.23341,0.97791 -0.61005,1.85259 -1.12142,2.62414 -0.51136,0.77154 -1.18869,1.3816 -2.02304,1.82569 -0.82986,0.44408 -1.8481,0.67733 -3.04128,0.68181 h -0.11186 l 0,0.004 z m 0,-12.43432 v -2.16208 h 4.26593 c 0.004,-0.60557 0,-1.2605 -0.063,-1.96477 -0.0448,-0.69974 -0.14336,-1.39501 -0.296,-2.08583 -0.14821,-0.69078 -0.38121,-1.32325 -0.69531,-1.89745 -0.30933,-0.56968 -0.73116,-1.03169 -1.25153,-1.37708 -0.52477,-0.34527 -1.17521,-0.52033 -1.96025,-0.53382 v -2.16208 h 0 c 1.08108,0.008 2.0096,0.20636 2.78563,0.59657 0.77154,0.38122 1.40854,0.90162 1.92438,1.56999 0.51136,0.66389 0.9061,1.42199 1.20215,2.2653 0.28712,0.8433 0.49343,1.72699 0.61454,2.64654 0.12114,0.91955 0.18374,1.83018 0.17929,2.72731 v 2.3774 h -6.72848 z m 0,-12.17862 v 2.16207 h -0.0448 c -0.7581,0.008 -1.39505,0.19303 -1.9109,0.55175 -0.50692,0.35456 -0.91959,0.82986 -1.23808,1.41298 -0.30933,0.58765 -0.54727,1.22908 -0.69975,1.93335 -0.16153,0.69078 -0.26895,1.39057 -0.31862,2.08135 -0.0585,0.68182 -0.0852,1.31433 -0.0808,1.87504 h 4.26588 v 2.16208 h -4.26588 c -0.004,0.50688 -0.004,1.10797 -0.004,1.80324 0,0.69082 0,1.42198 0.0808,2.19797 0.0497,0.77155 0.16153,1.52069 0.31862,2.26081 0.16153,0.73565 0.41267,1.4085 0.73117,2.0096 0.32306,0.60105 0.75361,1.08104 1.28743,1.43987 0.50684,0.33639 1.1259,0.52037 1.86151,0.54727 v 2.1666 c -1.03617,-0.0162 -1.92883,-0.2108 -2.66896,-0.56968 -0.77155,-0.37233 -1.39953,-0.87921 -1.90193,-1.52516 -0.5024,-0.64592 -0.90162,-1.38157 -1.1887,-2.20246 -0.296,-0.82538 -0.50688,-1.6911 -0.65044,-2.60616 -0.13447,-0.91063 -0.22897,-1.82121 -0.26895,-2.73628 -0.0448,-0.90162 -0.0541,-1.76738 -0.0493,-2.57927 -0.004,-0.79396 0,-1.64627 0.0493,-2.55237 0.0448,-0.91058 0.12559,-1.82117 0.26895,-2.74972 0.13447,-0.92852 0.34527,-1.80772 0.63695,-2.65999 0.28712,-0.84331 0.67734,-1.59693 1.17525,-2.2653 0.49792,-0.66837 1.12147,-1.1887 1.87952,-1.57895 0.7491,-0.37233 1.65968,-0.56968 2.71387,-0.57864 l 0,0 z m -18.01,24.60398 v -2.15316 h 0.12559 c 0.82985,-0.004 1.52064,-0.21079 2.07682,-0.60105 0.55175,-0.39453 0.99584,-0.91959 1.33674,-1.57895 0.33195,-0.65492 0.58765,-1.38609 0.7581,-2.19354 0.16153,-0.8074 0.27784,-1.62382 0.33195,-2.45812 0.0541,-0.84334 0.0852,-1.63282 0.0852,-2.3864 0,-0.74909 0,-1.39953 -0.004,-1.9468 0.004,-0.6504 0,-1.3726 -0.0586,-2.17108 -0.0448,-0.79844 -0.1478,-1.60136 -0.30044,-2.41778 -0.16598,-0.8074 -0.41267,-1.55654 -0.7491,-2.23835 -0.34083,-0.67734 -0.79844,-1.22909 -1.37712,-1.65072 -0.58761,-0.41719 -1.32778,-0.63695 -2.22043,-0.64596 v -2.15311 c 0.50692,0.0323 1.00928,0.12559 1.50275,0.28712 0.60106,0.19747 1.16625,0.48891 1.69558,0.85676 0.53826,0.37232 1.01372,0.82537 1.42195,1.35018 h 0.0852 v -10.31259 h 2.45812 v 31.83042 h -2.45812 v -2.20694 h -0.0852 c -0.49343,0.95545 -1.18422,1.6552 -2.04545,2.11725 -0.76259,0.39454 -1.62382,0.61903 -2.57931,0.67286 z m 0,-24.59502 v 2.15311 h 0 c -0.77155,0.008 -1.43096,0.19303 -1.96473,0.56071 -0.54726,0.359 -0.98239,0.84779 -1.32778,1.46233 -0.34971,0.61006 -0.61454,1.2964 -0.81641,2.0455 -0.18858,0.75806 -0.33194,1.52512 -0.41715,2.3146 -0.0852,0.79396 -0.14336,1.54309 -0.16153,2.25633 0,0.72216 -0.0448,1.35018 0,1.88844 -0.004,0.55623 0.004,1.18422 0.0448,1.87504 0.0448,0.68182 0.0941,1.39505 0.18858,2.1307 0.0985,0.72668 0.24674,1.43539 0.46206,2.12173 0.20635,0.67734 0.48895,1.29636 0.8433,1.8391 0.35416,0.55175 0.80741,0.98239 1.34571,1.30088 0.51584,0.30489 1.1259,0.47098 1.84362,0.49339 v 2.15316 c -0.13892,0.004 -0.28227,0.008 -0.42616,0.008 -1.04518,-0.004 -1.94679,-0.20635 -2.69589,-0.59213 -0.74909,-0.38565 -1.37264,-0.9061 -1.87055,-1.57447 -0.49788,-0.66837 -0.89262,-1.41746 -1.18418,-2.26525 -0.296,-0.84331 -0.51584,-1.73148 -0.65492,-2.66003 -0.14821,-0.92403 -0.23785,-1.8391 -0.28268,-2.74972 -0.0493,-0.91059 -0.0719,-1.76286 -0.063,-2.55234 0,-0.79396 0,-1.63726 0.0719,-2.5344 0.0493,-0.90614 0.15709,-1.81224 0.30489,-2.72283 0.15709,-0.91058 0.38121,-1.78082 0.68634,-2.61517 0.30045,-0.82981 0.70423,-1.57447 1.21111,-2.22038 0.5024,-0.65493 1.12142,-1.17077 1.87052,-1.5431 0.74913,-0.38121 1.65075,-0.57416 2.68693,-0.58312 l 0.33638,0.008 0,0 z m -29.77152,76.97437 v -2.12622 c 0.51136,-0.0719 0.96893,-0.21079 1.36815,-0.43064 0.58317,-0.30044 1.04966,-0.72668 1.4085,-1.26498 0.33195,-0.49791 0.58761,-1.03617 0.76259,-1.62381 0.17041,-0.58761 0.28227,-1.18422 0.34527,-1.79428 0.0585,-0.61902 0.0852,-1.21111 0.0808,-1.79427 v -4.11784 c -0.80741,0.4396 -1.6193,0.82986 -2.44023,1.1618 l -1.52512,0.62799 v -2.51199 l 1.08107,-0.41715 c 0.7222,-0.27824 1.43096,-0.57868 2.1217,-0.89714 0.18858,-0.0941 0.34083,-0.23341 0.44861,-0.41719 0.10297,-0.18374 0.17041,-0.36344 0.18858,-0.51584 0.0448,-0.25118 0.0719,-0.54727 0.0852,-0.88369 0,-0.33639 0,-0.69975 0,-1.06759 0,-0.37233 -0.0448,-0.72669 -0.0674,-1.06759 -0.0448,-0.33639 -0.063,-0.63696 -0.10297,-0.87921 -0.10298,-0.47546 -0.28712,-0.87917 -0.5383,-1.22908 -0.25562,-0.34527 -0.60558,-0.61902 -1.05863,-0.81637 -0.45309,-0.19303 -1.04069,-0.28712 -1.75393,-0.28712 l -0.39938,0.0121 v -2.1666 l 0.44408,-0.008 c 0.99135,-0.0162 1.90194,0.10782 2.73628,0.38121 0.84331,0.2645 1.54309,0.72668 2.10376,1.40401 0.34527,0.45305 0.6011,0.92403 0.77159,1.41747 0.16153,0.49343 0.26895,1.01376 0.30933,1.54309 0.0497,0.52033 0.0719,1.06759 0.063,1.6193 v 14.3856 c 0,0.46202 0.0448,0.80745 0.1167,1.03621 0.0852,0.23786 0.25118,0.38566 0.49792,0.45754 0.24673,0.0719 0.60553,0.0941 1.08104,0.0808 v 1.77635 c -0.43064,0.16597 -0.87921,0.25118 -1.34571,0.26006 -0.4665,0.004 -0.91959,-0.0404 -1.37264,-0.12559 -0.36344,-0.14336 -0.61454,-0.30489 -0.77151,-0.49792 -0.16153,-0.18818 -0.26894,-0.41715 -0.33194,-0.67733 -0.063,-0.26895 -0.13447,-0.57864 -0.2108,-0.94648 h -0.0448 c -0.63247,0.84783 -1.38609,1.4803 -2.28322,1.88848 -0.56968,0.23785 -1.15728,0.41271 -1.77182,0.51136 l 0,0 z m 0,-26.2278 v -2.41782 l 2.77665,-3.4764 h 3.31044 l -5.85833,5.89422 h -0.22897 l 0,0 z m 0,-26.41622 v -2.08583 c 0.24673,0.0626 0.58764,0.0896 1.03621,0.0674 v 1.78083 c -0.33639,0.13003 -0.67733,0.20635 -1.03621,0.23785 l 0,0 z m 7.82753,-0.31862 v -31.83042 h -2.46264 v 31.83042 h 2.46264 z m -10.94954,-8.53176 c 0,0.58765 0,1.18422 -0.0763,1.79427 -0.063,0.61903 -0.1793,1.21564 -0.34972,1.79876 -0.17929,0.58764 -0.43059,1.12142 -0.76254,1.62382 -0.359,0.53381 -0.82538,0.95993 -1.40402,1.26498 -0.39938,0.21524 -0.85679,0.359 -1.37264,0.42611 v 2.1307 c 0.61454,-0.0941 1.20219,-0.27339 1.76738,-0.52929 0.89714,-0.41267 1.6552,-1.03621 2.28319,-1.88849 h 0.0448 c 0.0763,0.36789 0.1478,0.67734 0.2108,0.94649 0.063,0.2645 0.17041,0.48447 0.33194,0.67733 0.15709,0.19303 0.40819,0.35456 0.77151,0.49344 0.45309,0.0941 0.90614,0.13447 1.37264,0.12559 0.10338,0 0.20635,-0.008 0.30489,-0.0162 v -2.08583 l -0.0448,-0.0121 c -0.24674,-0.0719 -0.41267,-0.21968 -0.49791,-0.45305 -0.0852,-0.23341 -0.12559,-0.57864 -0.11671,-1.03617 v -14.3856 c 0,-0.55175 0,-1.09901 -0.063,-1.61934 -0.0448,-0.52929 -0.1478,-1.04518 -0.30933,-1.54305 -0.17041,-0.49344 -0.42611,-0.97342 -0.77154,-1.42199 -0.56071,-0.66837 -1.26046,-1.13935 -2.10381,-1.39954 -0.8343,-0.27338 -1.74492,-0.39938 -2.73623,-0.38565 l -0.44409,0.0121 v 2.16207 l 0.39938,-0.0121 c 0.71324,0 1.30533,0.0985 1.75389,0.28712 0.45306,0.20191 0.80745,0.4665 1.06311,0.81637 0.24674,0.35456 0.43064,0.7581 0.5383,1.22908 0.0448,0.25118 0.0808,0.54278 0.10298,0.88369 0.0448,0.33638 0.0585,0.69078 0.0674,1.06759 0,0.36788 0,0.72668 0,1.06759 0,0.33639 -0.0448,0.63695 -0.0852,0.88369 0,0.15265 -0.0852,0.3275 -0.18859,0.51136 -0.10741,0.18374 -0.25562,0.3275 -0.44857,0.42164 -0.69078,0.31417 -1.39949,0.62354 -2.12173,0.89713 l -1.08104,0.41719 v 2.51199 l 1.52513,-0.63251 c 0.82089,-0.3275 1.63282,-0.71767 2.44023,-1.15728 v 4.13133 l 0.004,0 z m 3.12201,32.84866 v 2.41782 h -1.93331 l 1.93331,-2.41782 0,0 z m 0,4.12685 v 2.1666 c -0.66837,0.0404 -1.20215,0.15708 -1.60585,0.36788 -0.47995,0.24674 -0.83434,0.58765 -1.05863,1.0048 -0.22897,0.41719 -0.39009,0.87472 -0.47994,1.39057 -0.0897,0.50688 -0.18415,1.0272 -0.26895,1.55654 h -2.3774 c -0.0448,-1.38161 0.1793,-2.54341 0.65941,-3.51679 0.47098,-0.95993 1.17973,-1.70454 2.12169,-2.20246 0.83887,-0.46205 1.83914,-0.70875 3.00991,-0.76706 l 0,0 z m 0,10.64005 v 2.51199 l -0.91507,0.37677 c -0.62351,0.27379 -1.13039,0.55174 -1.53409,0.83882 -0.39494,0.28268 -0.70875,0.61006 -0.93304,0.95997 -0.21523,0.36344 -0.37232,0.78948 -0.45753,1.28287 -0.0941,0.48447 -0.13447,1.07211 -0.12559,1.7629 0,0.76706 0.0852,1.46233 0.28227,2.07238 0.18859,0.61454 0.5293,1.09449 1.00476,1.45337 0.47999,0.35456 1.13939,0.53826 1.9827,0.54726 0.24229,-0.004 0.47546,-0.0162 0.69979,-0.0493 v 2.12621 c -0.36789,0.0581 -0.74017,0.0897 -1.12595,0.0897 -1.06759,-0.008 -1.94675,-0.1793 -2.63758,-0.51584 -0.69078,-0.34083 -1.22908,-0.80741 -1.61933,-1.4085 -0.3901,-0.6011 -0.66385,-1.30533 -0.82086,-2.10829 -0.15709,-0.79844 -0.23341,-1.65968 -0.22452,-2.58823 0,-0.90162 0.0941,-1.73148 0.28711,-2.48954 0.19747,-0.74914 0.52934,-1.42199 1.00484,-2.00511 0.47098,-0.59661 1.11694,-1.10349 1.92883,-1.52961 0.6953,-0.3275 1.40402,-0.62354 2.12173,-0.89713 l 1.08104,-0.43064 z m -7.08737,-40.70309 c -0.22452,0.0323 -0.45753,0.0493 -0.69978,0.0493 -0.84331,-0.004 -1.49819,-0.18858 -1.98262,-0.54278 -0.47102,-0.36344 -0.81193,-0.8433 -1.00484,-1.45784 -0.19747,-0.61006 -0.29156,-1.30084 -0.28227,-2.07239 0,-0.6863 0.0448,-1.26946 0.12559,-1.7629 0.0852,-0.49339 0.24229,-0.91955 0.46201,-1.27839 0.22453,-0.35455 0.53826,-0.67733 0.93304,-0.96445 0.40383,-0.28268 0.91507,-0.56519 1.53409,-0.83434 l 0.91507,-0.37677 v -2.51199 l -1.08552,0.41715 c -0.7222,0.27824 -1.42647,0.5742 -2.12174,0.89714 -0.81193,0.42615 -1.45785,0.93303 -1.92883,1.52964 -0.47102,0.58761 -0.80744,1.25598 -1.00483,2.0096 -0.19747,0.75357 -0.29601,1.58343 -0.28712,2.48953 0,0.92404 0.0719,1.78531 0.22452,2.58824 0.15709,0.79844 0.43064,1.50719 0.8209,2.10828 0.38565,0.6011 0.92851,1.0676 1.61929,1.40402 0.69531,0.34083 1.57003,0.51136 2.63762,0.51585 0.38566,0 0.75806,-0.0283 1.12591,-0.0852 v -2.12173 l 0,0 z m 0,-22.39256 v 2.16212 c -0.66837,0.0404 -1.20214,0.16153 -1.60585,0.37232 -0.48446,0.24674 -0.83886,0.58317 -1.0631,1.0048 -0.22897,0.41719 -0.3901,0.87472 -0.47999,1.38609 -0.0897,0.50688 -0.18374,1.02721 -0.26895,1.56102 h -2.37743 c -0.0448,-1.3816 0.1793,-2.54789 0.6594,-3.51678 0.47102,-0.95994 1.17974,-1.70459 2.12174,-2.20695 0.8433,-0.45309 1.84362,-0.70427 3.01439,-0.76258 l 0,0 z m -10.20044,84.48341 v -2.16212 c 0.96889,-0.0162 1.75389,-0.17042 2.3505,-0.4665 0.61454,-0.30489 1.08104,-0.71772 1.39505,-1.23804 0.31862,-0.51589 0.53826,-1.1035 0.65488,-1.75394 0.12115,-0.64591 0.19303,-1.32325 0.20636,-2.01855 0,-0.69527 0.0448,-1.38157 0.0585,-2.03649 h -0.17041 c -0.64592,0.82538 -1.39501,1.40402 -2.23384,1.74941 -0.71772,0.29156 -1.47133,0.45753 -2.25629,0.49343 v -2.15763 l 0.12115,0.004 c 0.74913,-0.0162 1.37712,-0.18374 1.89297,-0.51136 0.52485,-0.31417 0.94648,-0.75806 1.27843,-1.29187 0.33638,-0.54727 0.59661,-1.15284 0.78499,-1.82569 0.18414,-0.66833 0.31862,-1.36364 0.40382,-2.07687 0.0852,-0.70872 0.13448,-1.40402 0.15709,-2.0589 0,-0.66389 0.0448,-1.2605 0,-1.78083 0.004,-0.64147 0.004,-1.33674 0,-2.10829 0,-0.76702 -0.0448,-1.55201 -0.0941,-2.35498 -0.0585,-0.80741 -0.17485,-1.57895 -0.35456,-2.32357 -0.18374,-0.74913 -0.45305,-1.41298 -0.8074,-2.00511 -0.35456,-0.59661 -0.83435,-1.06759 -1.42199,-1.41298 -0.54274,-0.31862 -1.21559,-0.49343 -2.00059,-0.52485 v -2.14863 c 0.55175,0.0363 1.05411,0.12115 1.51616,0.2738 0.62351,0.18818 1.17969,0.48446 1.68209,0.88817 0.50244,0.40382 0.96446,0.91506 1.38161,1.53857 h 0.0852 v -2.12622 h 2.46261 v 22.91737 c 0.004,1.27842 -0.11186,2.44023 -0.36345,3.4764 -0.24229,1.04518 -0.64595,1.9468 -1.19766,2.70042 -0.56071,0.74461 -1.30984,1.32773 -2.24284,1.74044 -0.90162,0.38121 -2.00959,0.58312 -3.32388,0.60105 z m 0,-32.01885 v 2.14867 l -0.21524,-0.004 c -0.73117,0.004 -1.34571,0.19747 -1.8481,0.57416 -0.51137,0.37233 -0.92852,0.87473 -1.2515,1.49823 -0.32306,0.62351 -0.57868,1.31429 -0.77154,2.07239 -0.18374,0.76254 -0.31862,1.53409 -0.40383,2.3146 -0.0852,0.78051 -0.13447,1.51168 -0.15709,2.19798 0,0.67733 -0.0448,1.26498 -0.0448,1.74044 -0.004,0.56071 0.004,1.19322 0.0448,1.884 0.0448,0.69078 0.0808,1.41298 0.17042,2.14863 0.0852,0.74013 0.23341,1.45337 0.43064,2.15315 0.19747,0.69078 0.4755,1.31429 0.82981,1.875 0.35456,0.55175 0.80297,1.00031 1.35023,1.32329 0.51585,0.30489 1.13935,0.47547 1.86604,0.49792 v 2.15759 c -0.14336,0.004 -0.28228,0.008 -0.43064,0.008 -1.05411,-0.008 -1.96021,-0.19303 -2.70934,-0.55171 -0.74461,-0.36788 -1.36364,-0.86127 -1.86155,-1.48478 -0.48895,-0.63247 -0.88369,-1.35467 -1.16629,-2.15759 -0.29156,-0.81641 -0.51136,-1.65972 -0.64596,-2.56582 -0.14335,-0.89714 -0.22896,-1.79428 -0.26894,-2.70486 -0.0448,-0.91062 -0.063,-1.76738 -0.0586,-2.58827 -0.004,-0.7491 0,-1.57896 0.0448,-2.47609 0.0448,-0.90162 0.11186,-1.82565 0.24229,-2.76317 0.11671,-0.93304 0.32306,-1.83914 0.60105,-2.70934 0.26895,-0.86576 0.65044,-1.65076 1.12146,-2.34602 0.47995,-0.68186 1.09001,-1.23356 1.83462,-1.63731 0.74461,-0.40382 1.64175,-0.61902 2.69593,-0.6235 0.20636,0 0.40815,0.004 0.60106,0.0161 l 0,0 z m 0,29.85673 v 2.16212 h -0.13448 c -0.84334,0 -1.64627,-0.0985 -2.40433,-0.30933 -0.75361,-0.20636 -1.43543,-0.52033 -2.03652,-0.95545 -0.59209,-0.43064 -1.07656,-0.98239 -1.4354,-1.65524 -0.36344,-0.65936 -0.56519,-1.46233 -0.61454,-2.38188 h 2.50303 c 0.0541,0.70423 0.27783,1.28739 0.66384,1.74045 0.39494,0.45305 0.89266,0.79396 1.48479,1.02272 0.59212,0.22857 1.21559,0.35456 1.87948,0.38121 h 0.0941 l 0,-0.004 z m -58.1255,-5.34692 v -2.12622 c 0.51137,-0.0719 0.9689,-0.21079 1.3726,-0.43064 0.57864,-0.30044 1.04518,-0.72668 1.40406,-1.26498 0.33194,-0.49791 0.58756,-1.03617 0.76254,-1.62382 0.17042,-0.5876 0.28228,-1.18421 0.34527,-1.79427 0.0586,-0.61902 0.0852,-1.21111 0.0808,-1.79427 v -4.11784 c -0.80741,0.4396 -1.6193,0.82986 -2.44019,1.1618 l -1.52513,0.62799 v -2.51199 l 1.08104,-0.41715 c 0.7222,-0.27824 1.43095,-0.57868 2.12173,-0.89714 0.18859,-0.0941 0.34083,-0.23341 0.44857,-0.41719 0.10298,-0.18374 0.17042,-0.36344 0.18859,-0.51584 0.0448,-0.25118 0.0719,-0.54727 0.0852,-0.88369 0,-0.33639 0,-0.69975 0,-1.0676 0,-0.37232 -0.0448,-0.72668 -0.0674,-1.06759 -0.0448,-0.33638 -0.063,-0.63695 -0.10298,-0.8792 -0.10297,-0.47547 -0.28712,-0.87917 -0.53826,-1.22908 -0.25562,-0.34527 -0.60557,-0.61903 -1.05866,-0.81637 -0.45301,-0.19303 -1.04066,-0.28712 -1.75389,-0.28712 l -0.39939,0.0121 v -2.1666 l 0.44409,-0.008 c 0.99135,-0.0161 1.90193,0.10783 2.73628,0.38122 0.8433,0.2645 1.54309,0.72668 2.1038,1.40401 0.34527,0.45305 0.60105,0.92403 0.77151,1.41747 0.16153,0.49343 0.26894,1.01376 0.30973,1.54309 0.0493,0.52033 0.0719,1.06759 0.063,1.6193 v 14.3856 c 0,0.46202 0.0448,0.80745 0.12114,1.03621 0.0852,0.23786 0.24674,0.38566 0.49348,0.45754 0.24673,0.0719 0.60553,0.0941 1.081,0.0808 v 1.77635 c -0.4306,0.16597 -0.87917,0.25117 -1.34567,0.26006 -0.4665,0.004 -0.91955,-0.0404 -1.37264,-0.12559 -0.36344,-0.14336 -0.61454,-0.30489 -0.77151,-0.49792 -0.16153,-0.18818 -0.26894,-0.41715 -0.33194,-0.67733 -0.063,-0.26895 -0.13447,-0.57864 -0.2108,-0.94649 h -0.0448 c -0.63247,0.84783 -1.38605,1.4803 -2.28771,1.88849 -0.56067,0.23785 -1.15279,0.41271 -1.76733,0.51136 l 0,0 z m 14.23752,-23.93565 h -2.33701 v 23.42873 h 2.46264 v -15.36347 c 0,-1.23804 0.18859,-2.32356 0.57864,-3.23415 0.38566,-0.91959 0.99583,-1.62381 1.80776,-2.12173 0.81638,-0.49343 1.85259,-0.73565 3.12653,-0.71324 v -2.58823 c -0.89713,-0.0242 -1.69113,0.0763 -2.37743,0.28712 -0.67734,0.2108 -1.28291,0.56519 -1.79427,1.05863 -0.51585,0.48443 -0.98687,1.13935 -1.39057,1.96024 h -0.0852 v -2.71386 l 0,0 z m 12.47923,23.42425 V 840.525 h -2.46264 v 23.42873 h 2.46264 l 0,0 z m 0.2108,-27.79779 v -4.02815 h -2.84394 v 4.02815 h 2.84394 l 0,0 z m 8.4869,10.52791 c 0,-0.66389 0.1482,-1.27391 0.43512,-1.82117 0.27783,-0.56071 0.65492,-1.0407 1.12146,-1.45785 0.47094,-0.41271 1.00475,-0.72668 1.59688,-0.95545 0.58761,-0.22856 1.1887,-0.34527 1.8122,-0.34527 0.79845,0 1.43096,0.12559 1.89745,0.38121 0.4665,0.24674 0.81189,0.59661 1.03174,1.03173 0.22008,0.44409 0.36344,0.95545 0.42611,1.54306 0.063,0.57868 0.0941,1.21115 0.0852,1.87952 v 17.01866 h 2.46264 v -18.58865 c 0,-1.13939 -0.2645,-2.10829 -0.74909,-2.92018 -0.48895,-0.80744 -1.14388,-1.42647 -1.96473,-1.86159 -0.82089,-0.4306 -1.74044,-0.64591 -2.75873,-0.6504 -1.14383,0.0121 -2.17104,0.27824 -3.06369,0.78948 -0.89714,0.51585 -1.64623,1.21563 -2.24284,2.09928 h -0.0852 v -2.29667 h -2.46264 v 23.42873 h 2.46264 v -17.27436 z m -35.41445,-6.73749 v 2.1666 c -0.66837,0.0404 -1.20218,0.15708 -1.60589,0.36788 -0.47998,0.24674 -0.83434,0.58765 -1.05862,1.0048 -0.22897,0.41719 -0.3901,0.87472 -0.47999,1.39057 -0.0897,0.50688 -0.18374,1.0272 -0.26895,1.55654 h -2.37739 c -0.0448,-1.38161 0.1793,-2.54341 0.6594,-3.51679 0.47098,-0.95993 1.17974,-1.70454 2.12174,-2.20246 0.83878,-0.46205 1.8391,-0.70875 3.00986,-0.76706 l 0,0 z m 0,10.64005 v 2.51199 l -0.9151,0.37677 c -0.62351,0.27379 -1.13039,0.55174 -1.53413,0.83882 -0.39454,0.28268 -0.70872,0.61006 -0.933,0.95997 -0.21564,0.36344 -0.37233,0.78948 -0.45753,1.28287 -0.0941,0.48447 -0.13448,1.07211 -0.12559,1.7629 0,0.76706 0.0852,1.46233 0.28267,2.07238 0.18859,0.61454 0.5293,1.09449 1.0048,1.45337 0.47995,0.35456 1.13939,0.53826 1.98266,0.54726 0.24229,-0.004 0.4755,-0.0162 0.69979,-0.0493 v 2.12621 c -0.36789,0.0581 -0.74017,0.0897 -1.12591,0.0897 -1.06759,-0.008 -1.94679,-0.1793 -2.63758,-0.51584 -0.69082,-0.34083 -1.22908,-0.80741 -1.61933,-1.4085 -0.3901,-0.6011 -0.66389,-1.30533 -0.8209,-2.10829 -0.15709,-0.79844 -0.23341,-1.65968 -0.22452,-2.58823 0,-0.90162 0.0941,-1.73148 0.28711,-2.48954 0.19747,-0.74914 0.5293,-1.42199 1.0048,-2.00511 0.47098,-0.59661 1.11694,-1.10349 1.92887,-1.52961 0.69526,-0.3275 1.40398,-0.62354 2.12169,-0.89713 l 1.08108,-0.43064 0,0 z m -32.31937,-15.69989 h 0.0852 l 7.97553,29.06721 h 2.92919 l 7.89481,-29.06721 h 0.0852 v 29.06721 h 2.75869 v -31.83042 h -4.49465 l -7.72435,27.75744 h -0.0852 l -7.5539,-27.75744 h -4.62476 v 31.83042 h 2.75869 v -29.06721 z m 179.15385,-75.24738 v -2.16211 l 0.1482,0.004 c 0.86572,-0.008 1.55655,-0.19303 2.07687,-0.55171 0.53382,-0.359 0.92856,-0.84331 1.20667,-1.42647 0.27783,-0.59661 0.47098,-1.24253 0.59213,-1.96024 0.11186,-0.70872 0.19747,-1.42195 0.24229,-2.13519 h 2.377441 c 0,1.08104 -0.112263,2.11726 -0.345271,3.0996 -0.23341,0.97342 -0.6101,1.85258 -1.12594,2.62413 -0.50684,0.77155 -1.1887,1.37712 -2.02304,1.82121 -0.82986,0.44857 -1.84806,0.67734 -3.04129,0.6863 l -0.10741,0 0,0 z m 0,-12.43432 v -2.16212 h 4.26588 c 0.004,-0.60105 0,-1.25597 -0.0674,-1.96024 -0.0448,-0.69975 -0.13891,-1.39501 -0.296,-2.08584 -0.1478,-0.69526 -0.38121,-1.32325 -0.69078,-1.89745 -0.30933,-0.57415 -0.73117,-1.03169 -1.25154,-1.38156 -0.52481,-0.34083 -1.17521,-0.52037 -1.96024,-0.52933 v -2.16208 h 0 c 1.08108,0.008 2.00959,0.20635 2.7901,0.59209 0.77155,0.38565 1.40402,0.9061 1.92435,1.57447 0.50688,0.66389 0.9061,1.4175 1.20218,2.26081 0.28712,0.84331 0.493438,1.73148 0.614545,2.65103 0.121147,0.91506 0.184144,1.83017 0.174856,2.72731 v 2.37291 h -6.724041 z m 0,-12.17862 v 2.16208 h -0.0448 c -0.7581,0.008 -1.39506,0.19303 -1.9109,0.55174 -0.5114,0.34971 -0.91959,0.82986 -1.23809,1.41298 -0.31417,0.58765 -0.54726,1.22908 -0.69974,1.93335 -0.16153,0.69079 -0.26895,1.38609 -0.31862,2.07687 -0.0586,0.6863 -0.0852,1.31429 -0.0808,1.875 h 4.26593 v 2.16212 h -4.26593 c -0.004,0.51136 -0.004,1.11245 -0.004,1.80324 0,0.69078 0,1.42647 0.0808,2.19797 0.0497,0.77155 0.16153,1.52517 0.31862,2.2653 0.16153,0.73564 0.40818,1.40401 0.73116,2.00511 0.32306,0.60553 0.75358,1.08552 1.28739,1.44436 0.50689,0.33638 1.12587,0.52037 1.86156,0.54726 v 2.16212 c -1.03622,-0.0162 -1.92887,-0.20636 -2.66896,-0.56968 -0.77159,-0.36788 -1.39958,-0.87472 -1.90198,-1.52068 -0.50235,-0.64592 -0.89713,-1.38156 -1.18869,-2.20694 -0.29601,-0.8209 -0.51137,-1.6911 -0.65044,-2.60168 -0.13448,-0.91063 -0.22897,-1.82569 -0.26895,-2.73628 -0.0448,-0.9061 -0.0586,-1.76737 -0.0493,-2.57926 -0.004,-0.79396 0,-1.64628 0.0493,-2.55238 0.0448,-0.91506 0.12559,-1.82565 0.26895,-2.74972 0.13447,-0.92851 0.34527,-1.8122 0.63699,-2.66447 0.29156,-0.84335 0.67733,-1.59245 1.17525,-2.26082 0.49339,-0.66388 1.12142,-1.18869 1.87952,-1.57895 0.7491,-0.37233 1.6552,-0.56967 2.71382,-0.57864 l 0,0 z m -18.01001,24.60398 v -2.15315 l 0.12115,0.004 c 0.82986,-0.008 1.52068,-0.21524 2.08139,-0.60554 0.55175,-0.39494 0.99583,-0.91511 1.3367,-1.57447 0.33195,-0.65941 0.58765,-1.39057 0.75814,-2.19354 0.16153,-0.8074 0.27783,-1.62381 0.33195,-2.46264 0.0541,-0.84331 0.0852,-1.63278 0.0852,-2.38188 0,-0.74909 0,-1.40401 -0.004,-1.94679 0.004,-0.65489 0,-1.3726 -0.0586,-2.17109 -0.0448,-0.79844 -0.1478,-1.60136 -0.30489,-2.41777 -0.16153,-0.80741 -0.40814,-1.55651 -0.74909,-2.24285 -0.34083,-0.67733 -0.79844,-1.22908 -1.38157,-1.64623 -0.58764,-0.42167 -1.32777,-0.63695 -2.21594,-0.64595 v -2.15312 c 0.50688,0.0323 1.00479,0.12115 1.50271,0.28712 0.60105,0.19747 1.16624,0.48443 1.69558,0.85227 0.53829,0.37677 1.01376,0.82986 1.42198,1.35019 h 0.0852 v -10.31259 h 2.46268 v 31.83042 h -2.46268 v -2.20694 h -0.0852 c -0.49343,0.95545 -1.17973,1.6552 -2.04549,2.11721 -0.75806,0.39939 -1.61934,0.62355 -2.57478,0.67286 z m 0,-24.59501 v 2.15311 h -0.004 c -0.77154,0.008 -1.42647,0.19303 -1.96476,0.56071 -0.54723,0.359 -0.98235,0.8433 -1.32774,1.46233 -0.35011,0.61005 -0.61454,1.29187 -0.81641,2.04101 -0.18859,0.75806 -0.33194,1.5296 -0.41715,2.3146 -0.0852,0.79396 -0.14336,1.54309 -0.16597,2.25629 0,0.7222 -0.0448,1.35471 0,1.89296 -0.004,0.55623 0.004,1.17974 0.0448,1.87056 0.0448,0.6863 0.0897,1.39953 0.18859,2.1307 0.0985,0.73116 0.24673,1.43539 0.46201,2.12618 0.20191,0.67737 0.48891,1.29191 0.84327,1.83913 0.35456,0.55175 0.80745,0.98239 1.34574,1.30088 0.51585,0.30489 1.12587,0.4665 1.84358,0.48891 v 2.15316 c -0.13891,0.008 -0.28227,0.0121 -0.43059,0.0121 -1.04518,-0.008 -1.94232,-0.20635 -2.69594,-0.59661 -0.74909,-0.38121 -1.3726,-0.90162 -1.86599,-1.56999 -0.49343,-0.66837 -0.89265,-1.42194 -1.18425,-2.26525 -0.29601,-0.84779 -0.51585,-1.73596 -0.65489,-2.66003 -0.1482,-0.92404 -0.24229,-1.8391 -0.28227,-2.74973 -0.0493,-0.91058 -0.0719,-1.76285 -0.063,-2.55233 0,-0.79396 0,-1.64179 0.0719,-2.53892 0.0493,-0.90611 0.15709,-1.80772 0.30489,-2.71831 0.15709,-0.91507 0.38121,-1.78082 0.68634,-2.61965 0.30489,-0.82986 0.70871,-1.56999 1.21115,-2.22039 0.5024,-0.65044 1.12591,-1.16628 1.875,-1.54309 0.74913,-0.38121 1.64627,-0.56968 2.68693,-0.57864 l 0.33638,0.008 0,0 z m -18.01901,24.51873 v -2.12622 c 0.51136,-0.0719 0.96893,-0.2108 1.3726,-0.4306 0.57868,-0.30044 1.04518,-0.72668 1.40405,-1.2605 0.33195,-0.50239 0.58761,-1.04065 0.76255,-1.6283 0.17041,-0.5876 0.28227,-1.18421 0.34971,-1.79427 0.0537,-0.61902 0.0852,-1.21111 0.0763,-1.79427 v -4.11784 c -0.80741,0.4396 -1.61933,0.82982 -2.44023,1.16176 l -1.52512,0.63251 v -2.51199 l 1.08103,-0.42167 c 0.7222,-0.27824 1.43096,-0.57864 2.12174,-0.89714 0.18859,-0.0941 0.34083,-0.23341 0.44857,-0.41715 0.10297,-0.18374 0.17041,-0.359 0.18858,-0.51585 0.0448,-0.24673 0.0719,-0.54278 0.0852,-0.88369 0,-0.33638 0,-0.69978 0,-1.06759 0,-0.37232 -0.0448,-0.72668 -0.0674,-1.06759 -0.0448,-0.33638 -0.063,-0.63699 -0.10297,-0.8792 -0.10298,-0.47547 -0.28712,-0.87921 -0.53826,-1.22908 -0.25562,-0.34527 -0.61006,-0.61903 -1.06311,-0.81638 -0.45305,-0.19302 -1.0407,-0.28712 -1.75393,-0.28712 l -0.39898,0.0121 v -2.1666 l 0.44409,-0.008 c 0.99131,-0.0121 1.90189,0.11227 2.73623,0.38121 0.84331,0.26451 1.5431,0.72669 2.10381,1.40402 0.34527,0.45305 0.60109,0.92407 0.77154,1.41747 0.16153,0.49343 0.26895,1.01376 0.30933,1.54309 0.0493,0.52481 0.0719,1.06759 0.063,1.61934 v 14.3856 c -0.004,0.46201 0.0448,0.80741 0.12115,1.04065 0.0852,0.23342 0.24673,0.38122 0.49343,0.45306 0.24674,0.0719 0.61006,0.0985 1.08104,0.0808 v 1.78083 c -0.4306,0.16153 -0.87469,0.24673 -1.34571,0.25562 -0.4665,0.004 -0.91959,-0.0363 -1.3726,-0.12559 -0.36344,-0.14336 -0.61454,-0.30489 -0.77154,-0.49788 -0.16598,-0.18858 -0.26895,-0.41719 -0.33195,-0.67737 -0.063,-0.26895 -0.13447,-0.57864 -0.21079,-0.94645 h -0.0448 c -0.62803,0.84779 -1.38609,1.48026 -2.28322,1.88845 -0.56071,0.23785 -1.15284,0.41271 -1.76738,0.51136 z m 0,-24.51873 v 2.16659 c -0.66837,0.0404 -1.20215,0.16153 -1.60585,0.36789 -0.47999,0.25118 -0.83887,0.58764 -1.06311,1.0048 -0.22453,0.42167 -0.39009,0.87472 -0.47999,1.39056 -0.0896,0.50689 -0.18374,1.02721 -0.26894,1.55655 h -2.37744 c -0.0448,-1.38161 0.1793,-2.54341 0.65941,-3.51231 0.47102,-0.96441 1.17973,-1.70906 2.12173,-2.20694 0.84331,-0.45757 1.84362,-0.70875 3.01439,-0.76706 l 0,0 z m 0,10.64453 v 2.51199 l -0.91507,0.37232 c -0.6235,0.2738 -1.13042,0.55175 -1.53409,0.83883 -0.39494,0.28268 -0.70879,0.61006 -0.93303,0.95993 -0.22009,0.36344 -0.37677,0.78948 -0.46202,1.28291 -0.0941,0.48447 -0.13447,1.07207 -0.12559,1.7629 -0.004,0.77154 0.0852,1.46233 0.28268,2.07238 0.18858,0.61454 0.52933,1.09449 1.00483,1.45337 0.47995,0.35456 1.13935,0.53826 1.98266,0.54722 0.2423,-0.004 0.47546,-0.0161 0.69975,-0.0493 v 2.12622 c -0.36789,0.0586 -0.74013,0.0897 -1.1259,0.0897 -1.0676,-0.008 -1.9468,-0.1793 -2.63758,-0.51585 -0.69079,-0.34082 -1.22908,-0.80744 -1.61934,-1.40401 -0.3901,-0.60558 -0.66385,-1.30985 -0.82085,-2.10829 -0.15709,-0.80292 -0.23342,-1.6642 -0.22453,-2.58823 -0.004,-0.9061 0.0941,-1.73596 0.28712,-2.49406 0.19747,-0.7491 0.52933,-1.41747 1.00479,-2.00507 0.47103,-0.59661 1.11694,-1.10349 1.92887,-1.52965 0.69527,-0.3275 1.40398,-0.62351 2.1217,-0.89714 l 1.08556,-0.42611 0,0 z m -17.33716,13.95048 v -2.15315 l 0.12559,0.004 c 0.82986,-0.008 1.52068,-0.21524 2.08139,-0.60554 0.55175,-0.39494 0.99579,-0.91511 1.3367,-1.57447 0.33195,-0.65941 0.58765,-1.39057 0.7581,-2.19354 0.16153,-0.8074 0.27783,-1.62381 0.33195,-2.46264 0.0541,-0.84331 0.0852,-1.63278 0.0852,-2.38188 0,-0.74909 0,-1.40401 -0.004,-1.94679 0.004,-0.65489 0,-1.3726 -0.0585,-2.17109 -0.0448,-0.79844 -0.1478,-1.60136 -0.30489,-2.41777 -0.16153,-0.80741 -0.40818,-1.55651 -0.74909,-2.24285 -0.34083,-0.67733 -0.79844,-1.22908 -1.38157,-1.64623 -0.58764,-0.42167 -1.32777,-0.63695 -2.22043,-0.64595 v -2.15312 c 0.51137,0.0323 1.00928,0.12115 1.50272,0.28712 0.60105,0.19747 1.16628,0.48443 1.69557,0.85227 0.53826,0.37677 1.01377,0.82986 1.42195,1.35019 h 0.0852 v -10.31259 h 2.46264 v 31.83042 h -2.46264 v -2.20694 h -0.0852 c -0.49343,0.95545 -1.17973,1.6552 -2.04549,2.11721 -0.75358,0.39939 -1.61481,0.62355 -2.57475,0.67286 z m 0,-24.59501 v 2.15311 h 0 c -0.77155,0.008 -1.42647,0.19303 -1.96473,0.56071 -0.54726,0.359 -0.98686,0.8433 -1.32777,1.46233 -0.34971,0.61005 -0.61454,1.29187 -0.81641,2.04101 -0.18859,0.75806 -0.33195,1.5296 -0.41715,2.3146 -0.0852,0.79396 -0.14336,1.54309 -0.16598,2.25629 0,0.7222 -0.0448,1.35471 -0.0448,1.89296 -0.004,0.55623 0,1.17974 0.0448,1.87056 0.0448,0.6863 0.0896,1.39953 0.18859,2.1307 0.0985,0.73116 0.24674,1.43539 0.46202,2.12618 0.20191,0.67737 0.48895,1.29191 0.84326,1.83913 0.35456,0.55175 0.80749,0.98239 1.34575,1.30088 0.51584,0.30489 1.1259,0.4665 1.83914,0.48891 v 2.15316 c -0.13892,0.008 -0.28228,0.0121 -0.42616,0.0121 -1.04518,-0.008 -1.94232,-0.20635 -2.69589,-0.59661 -0.7491,-0.38121 -1.37264,-0.90162 -1.87056,-1.56999 -0.49339,-0.66389 -0.88813,-1.42194 -1.17973,-2.26525 -0.296,-0.84779 -0.51585,-1.73596 -0.65488,-2.66003 -0.1478,-0.92404 -0.2423,-1.8391 -0.28268,-2.74973 -0.0493,-0.91058 -0.0719,-1.76285 -0.063,-2.55233 0,-0.79396 0,-1.64179 0.0719,-2.53892 0.0497,-0.90611 0.15709,-1.80772 0.30489,-2.71831 0.15709,-0.91507 0.38121,-1.78082 0.6863,-2.61965 0.30489,-0.82986 0.70871,-1.56999 1.21115,-2.22039 0.50236,-0.65044 1.1259,-1.16628 1.875,-1.54309 0.74913,-0.38121 1.64623,-0.56968 2.68693,-0.57864 l 0.33638,0.008 0,0 z m -55.0618,76.46744 v -31.83042 h 0.91063 v 31.83042 h -0.91063 l 0,0 z m 0,-51.86347 v -2.16211 l 0.1478,0.004 c 0.86128,-0.008 1.55654,-0.19303 2.07687,-0.55171 0.53378,-0.359 0.92856,-0.84331 1.20215,-1.42647 0.27783,-0.59661 0.4755,-1.24253 0.59661,-1.96024 0.11186,-0.70872 0.19747,-1.42195 0.24229,-2.13519 h 2.3774 c 0,1.08104 -0.11186,2.11726 -0.34971,3.0996 -0.23341,0.97342 -0.60554,1.85258 -1.12138,2.62413 -0.51141,0.77155 -1.18874,1.37712 -2.02308,1.82121 -0.82982,0.44857 -1.84811,0.67734 -3.04129,0.6863 l -0.10742,0 0,0 z m 0,-12.43432 v -2.16212 h 4.26588 c 0.004,-0.60105 0,-1.25597 -0.0674,-1.96024 -0.0448,-0.69975 -0.13892,-1.39501 -0.29601,-2.08584 -0.1478,-0.69526 -0.38121,-1.32325 -0.69078,-1.89745 -0.31418,-0.57415 -0.73117,-1.03169 -1.25149,-1.38156 -0.52481,-0.34083 -1.17525,-0.52037 -1.96025,-0.52933 v -2.16208 h 0 c 1.08104,0.008 2.00959,0.20635 2.79011,0.59209 0.76702,0.38565 1.40401,0.9061 1.92434,1.57447 0.50688,0.66389 0.90614,1.4175 1.20219,2.26081 0.28712,0.84331 0.49339,1.73148 0.61454,2.65103 0.12114,0.91506 0.18858,1.83017 0.1793,2.72731 v 2.37291 h -6.72853 l 0,0 z m 13.56023,-11.58653 h -2.33706 v 23.42873 h 2.46265 v -15.36347 c 0,-1.23804 0.18858,-2.32356 0.57868,-3.23419 0.38565,-0.91955 0.99579,-1.62382 1.80772,-2.12169 0.81637,-0.49344 1.85258,-0.73569 3.12653,-0.71324 v -2.58823 c -0.90166,-0.0242 -1.6911,0.0808 -2.37744,0.28712 -0.67733,0.2108 -1.28291,0.56523 -1.79427,1.05863 -0.51584,0.48895 -0.98683,1.13939 -1.39053,1.96472 h -0.0852 v -2.7183 l 0,0 z m 8.40169,6.15436 c 0.0541,0.89714 0.28712,1.66421 0.69082,2.29219 0.39454,0.63247 0.91059,1.17974 1.54306,1.6283 0.62798,0.45306 1.31432,0.86124 2.05441,1.22909 0.73569,0.359 1.47134,0.71771 2.20698,1.08552 0.73117,0.36344 1.39954,0.76706 2.0096,1.21115 0.60109,0.44856 1.09,0.97786 1.45784,1.6014 0.36789,0.61454 0.55623,1.36364 0.5652,2.23832 0,0.82986 -0.15709,1.579 -0.46654,2.23836 -0.30933,0.65941 -0.77151,1.19322 -1.36812,1.58348 -0.60109,0.39009 -1.33674,0.5876 -2.19798,0.59657 -0.99583,-0.008 -1.81668,-0.20636 -2.46264,-0.60554 -0.63695,-0.39494 -1.11694,-0.95549 -1.4444,-1.66868 -0.33194,-0.70875 -0.52933,-1.55654 -0.59213,-2.52544 h -2.50298 c 0,2.24284 0.56519,3.95635 1.69558,5.14509 1.13042,1.19766 2.84393,1.79875 5.13612,1.8122 1.36363,0 2.54337,-0.25562 3.53472,-0.74913 0.99583,-0.4934 1.76285,-1.22456 2.30563,-2.18001 0.5383,-0.95997 0.81193,-2.13522 0.8209,-3.52127 0,-1.24253 -0.2108,-2.31464 -0.61454,-3.20277 -0.40383,-0.89266 -0.95545,-1.6642 -1.6642,-2.31016 -0.71324,-0.6504 -1.52513,-1.22008 -2.44468,-1.73148 -0.92855,-0.5024 -1.90641,-0.99131 -2.95607,-1.45785 -0.54727,-0.21079 -1.02721,-0.47098 -1.45785,-0.79396 -0.42167,-0.31377 -0.76258,-0.70422 -1.0048,-1.15728 -0.24673,-0.45757 -0.37232,-0.99134 -0.38121,-1.61485 0,-0.77155 0.12559,-1.42647 0.38121,-1.9827 0.25562,-0.56071 0.64592,-0.99131 1.15728,-1.28739 0.51585,-0.30045 1.16181,-0.46202 1.93784,-0.46202 0.86127,0.008 1.59244,0.20636 2.17556,0.59661 0.58761,0.3901 1.04066,0.91955 1.34571,1.57896 0.30933,0.6594 0.47998,1.41298 0.51136,2.23836 h 2.41778 c -0.004,-1.35019 -0.25562,-2.51648 -0.75358,-3.49886 -0.49343,-0.97786 -1.21563,-1.73144 -2.16212,-2.26974 -0.94648,-0.52929 -2.0948,-0.79844 -3.44502,-0.8074 -1.43092,0.008 -2.61513,0.27823 -3.55265,0.8074 -0.942,0.5293 -1.6193,1.30084 -2.03649,2.30564 -0.42167,1.00928 -0.56971,2.22043 -0.4396,3.63789 l 0,0 z m 20.58035,17.27437 v -23.42873 h -2.46268 v 23.42873 h 2.46268 l 0,0 z m 0.21524,-27.79779 v -4.03263 h -2.84393 v 4.03263 h 2.84393 l 0,0 z m -25.59085,74.65076 c -0.2645,0.67738 -0.61454,1.31433 -1.06755,1.91094 -0.46205,0.60105 -0.9779,1.09448 -1.5655,1.48474 -0.58317,0.38121 -1.21115,0.59661 -1.86608,0.63695 -0.98234,0.0719 -1.78078,-0.0363 -2.39088,-0.30933 -0.60105,-0.28267 -1.04962,-0.73564 -1.31429,-1.37264 -0.27783,-0.63247 -0.41715,-1.44436 -0.41267,-2.43122 v -17.7409 h -2.45816 v 17.31474 c -0.004,0.91511 0.063,1.78083 0.20192,2.58827 0.1482,0.80741 0.40382,1.51168 0.78051,2.1307 0.36788,0.62351 0.89714,1.10345 1.57895,1.44885 0.67734,0.34971 1.54754,0.52933 2.61517,0.53381 1.22908,0.008 2.33701,-0.19747 3.3194,-0.63247 0.97786,-0.43064 1.8391,-1.13491 2.58375,-2.12622 h 0.0852 v 2.16208 h 2.37744 v -23.42873 h -2.46264 v 17.83059 z m -17.1667,-70.87379 v 2.16208 h -0.0448 c -0.75806,0.008 -1.39505,0.19303 -1.9109,0.55174 -0.51136,0.34971 -0.91955,0.82986 -1.23805,1.41298 -0.31417,0.58765 -0.54722,1.22908 -0.69974,1.93335 -0.16153,0.69079 -0.26895,1.38609 -0.31862,2.07687 -0.0541,0.6863 -0.0852,1.31429 -0.0763,1.875 h 4.26588 v 2.16212 h -4.26588 c -0.004,0.51136 -0.004,1.11245 -0.004,1.80324 -0.004,0.69078 0,1.42647 0.0808,2.19797 0.0497,0.77155 0.16153,1.52517 0.31862,2.2653 0.16153,0.73564 0.40823,1.40401 0.72668,2.00511 0.32751,0.60553 0.7581,1.08552 1.2874,1.44436 0.50239,0.33638 1.1259,0.52037 1.86155,0.54726 v 2.16212 c -1.03622,-0.0162 -1.92883,-0.20636 -2.66896,-0.56968 -0.77155,-0.36788 -1.39954,-0.87472 -1.90197,-1.52068 -0.5024,-0.64592 -0.89714,-1.38156 -1.18866,-2.20694 -0.20636,-0.56968 -0.37233,-1.16181 -0.50244,-1.77635 v -12.32218 c 0.12559,-0.61454 0.28712,-1.21111 0.48447,-1.78979 0.29156,-0.8433 0.67733,-1.5924 1.17525,-2.26077 0.49339,-0.66389 1.12142,-1.1887 1.87952,-1.57895 0.75358,-0.36789 1.65968,-0.56519 2.7183,-0.57416 l 0,0 z m 0,44.64599 v 31.83042 h -1.55202 v -2.20694 h -0.0852 c -0.49344,0.95545 -1.17974,1.65524 -2.0455,2.11725 -0.75806,0.39939 -1.61929,0.62351 -2.57922,0.67286 v -2.15316 h 0.12559 c 0.82982,-0.004 1.5206,-0.21079 2.08131,-0.60105 0.55174,-0.39454 0.99583,-0.91959 1.33674,-1.57895 0.33194,-0.65493 0.5876,-1.38609 0.7581,-2.19354 0.16153,-0.8074 0.27783,-1.62382 0.33194,-2.45812 0.0541,-0.84335 0.0852,-1.63282 0.0852,-2.3864 0,-0.74909 0,-1.39953 -0.004,-1.9468 0.004,-0.6504 0,-1.3726 -0.0585,-2.17108 -0.0448,-0.79844 -0.1478,-1.60136 -0.30489,-2.41778 -0.16153,-0.8074 -0.40815,-1.55654 -0.7491,-2.23836 -0.34082,-0.67733 -0.79844,-1.22908 -1.38156,-1.65071 -0.58765,-0.41719 -1.32778,-0.63695 -2.22043,-0.64596 v -2.15311 c 0.50688,0.0323 1.00932,0.12559 1.50271,0.28712 0.60109,0.19747 1.16629,0.48891 1.69558,0.85675 0.5383,0.37233 1.0138,0.82538 1.42199,1.35019 h 0.0852 v -10.31259 h 1.55655 z m -6.25754,-38.42883 v 12.32218 c -0.0582,-0.27379 -0.10742,-0.54726 -0.15265,-0.82986 -0.13447,-0.91062 -0.22452,-1.82569 -0.26894,-2.73627 -0.0448,-0.9061 -0.0586,-1.76738 -0.0493,-2.57927 -0.004,-0.79396 0,-1.64623 0.0493,-2.55237 0.0448,-0.91507 0.12558,-1.82565 0.26894,-2.74972 0.0448,-0.29601 0.0941,-0.59209 0.15265,-0.87469 l 0,0 z m 0,46.2474 v 2.15311 h 0 c -0.77151,0.008 -1.42643,0.19303 -1.96469,0.56071 -0.54726,0.359 -0.98687,0.84779 -1.32777,1.46233 -0.34972,0.61006 -0.61454,1.2964 -0.81642,2.04549 -0.18858,0.75806 -0.33194,1.52513 -0.41715,2.31461 -0.0852,0.79396 -0.14335,1.54309 -0.16597,2.25633 0,0.72215 -0.0448,1.35018 -0.0448,1.88844 -0.004,0.55623 0,1.18422 0.0448,1.87504 0.0448,0.68182 0.0897,1.39505 0.18859,2.1307 0.0985,0.72668 0.24673,1.43539 0.46201,2.12173 0.20192,0.67734 0.48895,1.29636 0.84331,1.8391 0.35456,0.55175 0.80741,0.98238 1.3457,1.30088 0.51589,0.30489 1.12591,0.47098 1.83914,0.49339 v 2.15316 c -0.13891,0.004 -0.28227,0.008 -0.42611,0.008 -1.04518,-0.004 -1.94232,-0.20635 -2.69594,-0.59213 -0.74909,-0.38565 -1.37259,-0.9061 -1.87051,-1.57447 -0.49339,-0.66389 -0.88817,-1.41746 -1.17973,-2.26525 -0.29601,-0.84331 -0.51585,-1.73148 -0.65493,-2.66003 -0.1478,-0.92404 -0.24229,-1.8391 -0.28227,-2.74973 -0.0493,-0.91058 -0.0719,-1.76285 -0.063,-2.55233 0,-0.79396 0,-1.63726 0.0719,-2.5344 0.0493,-0.90614 0.15709,-1.81224 0.30489,-2.72283 0.15709,-0.91058 0.38121,-1.78082 0.68634,-2.61517 0.30489,-0.82982 0.70871,-1.57447 1.21115,-2.22039 0.50236,-0.65492 1.12587,-1.17076 1.875,-1.54309 0.7491,-0.38121 1.64623,-0.57416 2.68693,-0.58312 l 0.33638,0.008 0,0 z m -18.01898,24.51873 v -2.1307 c 0.51137,-0.0674 0.9689,-0.21079 1.3726,-0.42611 0.57864,-0.30489 1.04518,-0.73117 1.40406,-1.26498 0.33195,-0.5024 0.58761,-1.03618 0.76254,-1.62382 0.17042,-0.58761 0.28228,-1.18422 0.34972,-1.79876 0.0541,-0.61454 0.0852,-1.21111 0.0763,-1.79427 v -4.11336 c -0.80745,0.43961 -1.61938,0.82986 -2.44023,1.15728 l -1.52513,0.63251 v -2.51199 l 1.08104,-0.41719 c 0.7222,-0.27823 1.43091,-0.58312 2.12174,-0.89713 0.18858,-0.0941 0.34082,-0.23786 0.44856,-0.42164 0.10298,-0.18374 0.17042,-0.359 0.18859,-0.51136 0.0448,-0.25118 0.0719,-0.54726 0.0852,-0.88369 0,-0.34083 0,-0.69975 0,-1.06759 0,-0.37677 -0.0448,-0.73117 -0.0674,-1.06759 -0.0448,-0.34083 -0.063,-0.63695 -0.10298,-0.88369 -0.10297,-0.47098 -0.28712,-0.87469 -0.53825,-1.22908 -0.25563,-0.34527 -0.60558,-0.61454 -1.05863,-0.81637 -0.45305,-0.18859 -1.0407,-0.28712 -1.75389,-0.28712 l -0.39938,0.0121 v -2.16207 l 0.44408,-0.0121 c 0.99135,-0.0121 1.90198,0.11226 2.73628,0.38565 0.84334,0.26007 1.54309,0.72669 2.1038,1.39954 0.34527,0.45305 0.60105,0.92855 0.77151,1.42199 0.16153,0.49339 0.26895,1.01376 0.30933,1.54305 0.0493,0.52033 0.0719,1.06759 0.063,1.61934 v 14.3856 c -0.004,0.46201 0.0448,0.80741 0.12115,1.03617 0.0852,0.23341 0.24674,0.38121 0.49344,0.45305 0.24673,0.0719 0.60557,0.0985 1.08107,0.0808 v 1.78082 c -0.43063,0.16153 -0.8792,0.24674 -1.3457,0.25562 -0.46654,0.008 -0.91959,-0.0363 -1.37268,-0.12558 -0.36344,-0.13892 -0.6145,-0.30045 -0.77151,-0.4934 -0.16597,-0.19303 -0.26895,-0.41719 -0.33194,-0.67733 -0.063,-0.26895 -0.13448,-0.57868 -0.2108,-0.94649 h -0.0448 c -0.63247,0.84779 -1.38605,1.47578 -2.28319,1.88845 -0.56519,0.24229 -1.15283,0.41719 -1.77182,0.5114 l 0,0 z m 2.90673,-76.3912 h -2.63309 l 6.23957,23.42873 h 2.67348 l 6.19471,-23.42873 h -2.50299 l -4.96567,18.96998 h -0.0852 l -4.92081,-18.96998 z m -52.11468,15.02704 c -0.004,1.94679 0.29156,3.60203 0.88369,4.9567 0.60109,1.36812 1.53408,2.40433 2.81251,3.12653 1.27395,0.71319 2.92914,1.07207 4.95667,1.08104 1.70906,-0.008 3.13101,-0.26451 4.26588,-0.7581 1.13935,-0.5024 2.03204,-1.21559 2.68692,-2.14415 0.65493,-0.91955 1.11694,-2.02304 1.39506,-3.29698 0.26894,-1.26943 0.40382,-2.68693 0.39938,-4.24343 V 727.2166 h -2.75869 v 22.83216 c 0.004,1.07655 -0.0808,2.0589 -0.24673,2.95155 -0.1793,0.88817 -0.47999,1.65972 -0.92856,2.30568 -0.4396,0.65488 -1.05414,1.15279 -1.85258,1.50719 -0.794,0.35456 -1.80324,0.52929 -3.04129,0.53826 -1.18874,0 -2.17108,-0.15709 -2.92918,-0.4665 -0.76254,-0.30933 -1.35915,-0.76258 -1.7763,-1.36816 -0.42616,-0.60105 -0.71772,-1.34122 -0.87921,-2.21142 -0.16153,-0.86576 -0.24229,-1.87504 -0.23341,-2.99646 v -23.08782 h -2.75873 v 23.42425 l 0.004,0 z m 49.20795,36.84543 v 2.16212 c -0.66837,0.0404 -1.20218,0.16153 -1.60584,0.37232 -0.47999,0.24674 -0.83435,0.58317 -1.05867,1.0048 -0.22897,0.41719 -0.3901,0.87472 -0.47995,1.38609 -0.0897,0.50688 -0.18414,1.02721 -0.26894,1.56102 h -2.37744 c -0.0448,-1.3816 0.1793,-2.54789 0.65941,-3.51678 0.47098,-0.95994 1.17973,-1.70459 2.12173,-2.20695 0.84331,-0.45309 1.83914,-0.70427 3.00991,-0.76258 l 0,0 z m 0,10.64453 v 2.51199 l -0.91506,0.37677 c -0.62351,0.26895 -1.13043,0.55175 -1.53413,0.83434 -0.39454,0.28268 -0.70875,0.61006 -0.933,0.96442 -0.21564,0.359 -0.37232,0.78503 -0.45757,1.27843 -0.0941,0.48895 -0.13447,1.07207 -0.12559,1.76289 0,0.77155 0.0852,1.46233 0.28227,2.07239 0.18859,0.61902 0.52934,1.09448 1.0048,1.45785 0.47994,0.35455 1.13935,0.53825 1.9827,0.54278 0.24229,0 0.47546,-0.0162 0.69974,-0.0493 v 2.1307 c -0.36788,0.0581 -0.74013,0.0852 -1.12594,0.0852 -1.06755,-0.004 -1.94676,-0.17486 -2.63754,-0.51585 -0.69078,-0.33639 -1.22908,-0.80741 -1.61934,-1.40402 -0.39009,-0.60109 -0.66388,-1.3098 -0.82089,-2.10828 -0.15709,-0.80293 -0.23341,-1.66416 -0.22453,-2.58824 -0.004,-0.9061 0.0941,-1.73596 0.28712,-2.48953 0.19747,-0.75362 0.5293,-1.42195 1.0048,-2.0096 0.47098,-0.59661 1.11694,-1.10349 1.92883,-1.5296 0.6953,-0.32306 1.40405,-0.62351 2.12177,-0.89714 l 1.08104,-0.42616 0,0 z m -23.48704,-56.36264 c 0,-0.66388 0.1478,-1.26946 0.43064,-1.82116 0.27783,-0.56071 0.65937,-1.0407 1.12591,-1.45785 0.47098,-0.41271 1.00475,-0.72668 1.59688,-0.95545 0.5876,-0.22897 1.1887,-0.34527 1.81224,-0.34527 0.79844,0 1.42643,0.12559 1.89741,0.38121 0.4665,0.25118 0.81193,0.59661 1.03173,1.03173 0.22009,0.44405 0.36345,0.95545 0.42612,1.54306 0.063,0.57864 0.0941,1.21115 0.0852,1.87952 v 17.01866 h 2.46264 v -18.58865 c 0,-1.13939 -0.26451,-2.10829 -0.74909,-2.92018 -0.48896,-0.80745 -1.14388,-1.42647 -1.96473,-1.86159 -0.8209,-0.4306 -1.74045,-0.64143 -2.75873,-0.6504 -1.14383,0.0121 -2.17104,0.27824 -3.0637,0.79396 -0.89713,0.51136 -1.64623,1.21111 -2.24284,2.0948 h -0.0852 v -2.29667 h -2.46265 v 23.42873 h 2.46265 v -17.27436 l 0,0 z m 19.56207,17.27437 v -23.42873 h -2.46264 v 23.42873 h 2.46264 l 0,0 z m 0.2108,-27.79779 v -4.03263 h -2.8439 v 4.03263 h 2.8439 l 0,0 z m -31.10374,80.25338 v -2.46264 h -11.88258 v -12.99051 h 10.60868 v -2.46264 h -10.60868 v -11.45647 h 11.67179 v -2.46264 h -14.43047 v 31.83042 h 14.64126 l 0,0.004 z m 3.22523,-17.27436 c 0.0541,0.89714 0.28712,1.65972 0.69078,2.29219 0.39454,0.62799 0.91058,1.17525 1.54309,1.62382 0.62799,0.45753 1.31429,0.86123 2.05446,1.22908 0.73561,0.359 1.4713,0.7222 2.20694,1.09 0.72668,0.359 1.39954,0.76258 2.00959,1.21115 0.60106,0.44857 1.09001,0.97786 1.45785,1.59693 0.36789,0.6145 0.56071,1.36363 0.56519,2.24284 0,0.82982 -0.15708,1.57895 -0.46649,2.23383 -0.31418,0.66389 -0.77155,1.19771 -1.36816,1.58796 -0.60109,0.38566 -1.3367,0.58761 -2.19798,0.59209 -0.99583,-0.004 -1.81672,-0.20635 -2.46264,-0.60105 -0.63699,-0.39494 -1.12142,-0.95545 -1.4444,-1.66869 -0.33194,-0.71323 -0.52929,-1.55654 -0.59209,-2.52543 h -2.50302 c 0,2.23836 0.56519,3.95186 1.69557,5.14508 1.13039,1.19319 2.84394,1.79428 5.13613,1.80773 1.36363,0 2.54341,-0.25563 3.53471,-0.74914 0.99584,-0.49339 1.7629,-1.22007 2.30564,-2.17552 0.5383,-0.96446 0.81641,-2.13971 0.82538,-3.52127 0,-1.24701 -0.2108,-2.3146 -0.61454,-3.20726 -0.40383,-0.88817 -0.95545,-1.65972 -1.6642,-2.30567 -0.71324,-0.65489 -1.52513,-1.22456 -2.44468,-1.73597 -0.92855,-0.49787 -1.91093,-0.9913 -2.95607,-1.45332 -0.54278,-0.21524 -1.02721,-0.4755 -1.45785,-0.794 -0.42616,-0.31862 -0.76258,-0.70871 -1.0048,-1.16176 -0.24673,-0.45305 -0.37676,-0.99135 -0.38121,-1.61037 0,-0.77155 0.12559,-1.42647 0.38121,-1.98718 0.25562,-0.55623 0.64148,-0.99131 1.15732,-1.2874 0.51585,-0.30044 1.16177,-0.46201 1.9378,-0.46201 0.86123,0.008 1.59244,0.20635 2.17556,0.59661 0.58761,0.39009 1.04066,0.91955 1.34571,1.57895 0.30933,0.66389 0.47998,1.41298 0.51136,2.24284 h 2.41778 c -0.004,-1.35018 -0.25562,-2.52095 -0.75806,-3.49881 -0.49344,-0.9779 -1.21564,-1.73596 -2.16212,-2.27426 -0.94648,-0.52929 -2.09484,-0.79844 -3.44499,-0.80741 -1.43095,0.008 -2.61516,0.27824 -3.55268,0.80741 -0.93752,0.53381 -1.61934,1.30084 -2.03653,2.31012 -0.42159,1.00928 -0.56964,2.21594 -0.43956,3.63789 l 0,0 z m 23.17306,15.44871 c -0.3275,0.0941 -0.66388,0.15709 -1.01828,0.18374 -0.35456,0.0323 -0.69526,-0.0242 -1.01824,-0.13891 -0.37677,-0.0808 -0.6504,-0.2423 -0.82982,-0.48891 -0.1793,-0.24674 -0.29156,-0.52037 -0.34083,-0.83435 -0.0497,-0.30933 -0.0719,-0.61005 -0.063,-0.88369 v -17.27436 h 3.27009 v -2.16211 h -3.27009 v -6.87209 h -2.46264 v 6.87209 h -2.12173 v 2.16211 h 2.12173 v 17.52554 c 0,0.74466 0.0497,1.37264 0.17486,1.88849 0.13447,0.51136 0.38121,0.942 0.74909,1.28739 0.36788,0.35456 0.9061,0.65492 1.61934,0.89714 0.28712,0.0808 0.62798,0.11226 1.01376,0.10297 0.39009,-0.004 0.77154,-0.0363 1.16176,-0.0852 0.38121,-0.0581 0.7222,-0.10338 1.0138,-0.14821 v -2.032 z m -444.68366,-67.72489 36.02454,0 -0.15709,23.96703 -35.62532,0.24674 -7.06047,-11.74799 z m -43.00428,14.15236 49.74625,81.95796 23.191,-0.48446 -49.90771,-81.38825 45.57007,-86.53787 -23.74723,0.48447 z m -86.33147,50.34735 -17.97415,-30.79873 21.26217,-12.22797 17.65113,31.04094 -6.73749,11.82427 z m 33.13578,32.65127 46.45371,-84.85121 -11.14689,-20.26185 -46.29678,84.92749 -100.29544,-0.48447 14.04469,20.19009 z m 89.05878,51.55398 -18.05043,30.72244 -21.01992,-12.62719 18.37337,-30.64172 13.64099,0.15709 z m 10.43369,-44.23333 -94.67937,0 -12.27283,19.70559 94.83634,0 50.94844,84.92749 10.9092,-21.39224 z m 59.66855,-16.97832 c 0.0448,9.24048 1.70903,16.83028 5.06881,22.82764 3.33288,5.97047 8.15947,10.41128 14.48878,13.32249 6.29788,2.90673 13.95048,4.35109 22.91732,4.35109 8.06975,-0.0323 14.84766,-1.08104 20.3381,-3.12201 5.49048,-2.03652 9.86854,-4.88942 13.13859,-8.54525 3.27009,-3.6603 5.63852,-7.94864 7.0784,-12.8694 1.43992,-4.88943 2.1307,-10.19596 2.09932,-15.96007 v -97.7295 h -31.67793 v 100.97277 c 0,1.46682 -0.1478,2.93811 -0.50684,4.46772 -0.36345,1.49823 -0.95997,2.87983 -1.77186,4.17171 -0.83883,1.28739 -1.9468,2.31011 -3.32837,3.11752 -1.4085,0.78051 -3.12204,1.17077 -5.18995,1.20219 -2.96952,-0.0323 -5.24822,-0.6011 -6.84067,-1.68213 -1.58795,-1.10798 -2.70041,-2.5479 -3.29698,-4.38251 -0.60109,-1.79427 -0.8702,-3.80835 -0.83882,-5.99736 V 731.72037 h -31.6779 v 97.72514 l 0,0 z m 175.48446,37.25807 v -26.99931 h -43.01321 v -29.15698 h 39.59515 v -26.9993 h -39.59515 v -24.83727 h 40.85561 v -26.9993 h -72.53355 v 134.98768 h 74.69115 l 0,0.004 z m 45.89752,0 -2.87979,-105.83074 h 0.359 l 21.77801,105.83074 h 23.57677 l 22.31628,-105.83074 h 0.36344 l -3.23863,105.83074 h 30.23797 V 731.71577 h -44.27819 l -16.91552,79.72853 h -0.36344 l -16.37723,-79.72853 h -44.63706 v 134.98768 h 30.05855 z"
       style="fill:#3c3c3c;fill-opacity:1"
       id="path3888" />
  </g>
</svg>
